PathFileType	4	(X/Y/Z)	C:/Users/opensim2020/Desktop/walking_exp_matlab/subject03_walking07_straight_01.trc	
DataRate	CameraRate	NumFrames	NumMarkers	Units	OrigDataRate	OrigDataStartFrame	OrigNumFrames	
100.00	100.00	4	46	mm	100.00	820	310	
Frame#	Time	LFHD			RFHD			LBHD			RBHD			C7			T10			CLAV			STRN			RBAK			LSHO			LUPA			LELB			LFRM			LWRA			LWRB			LFIN			RSHO			RUPA			RELB			RFRM			RWRA			RWRB			RFIN			LASI			RASI			LPSI			RPSI			LTHI			LKNE			LTIB			LANK			LHEE			LTOE			RTHI			RKNE			RTIB			RANK			RHEE			RTOE			*39			*40			*41			*42			*43			*44			*45			
		X1	Y1	Z1	X2	Y2	Z2	X3	Y3	Z3	X4	Y4	Z4	X5	Y5	Z5	X6	Y6	Z6	X7	Y7	Z7	X8	Y8	Z8	X9	Y9	Z9	X10	Y10	Z10	X11	Y11	Z11	X12	Y12	Z12	X13	Y13	Z13	X14	Y14	Z14	X15	Y15	Z15	X16	Y16	Z16	X17	Y17	Z17	X18	Y18	Z18	X19	Y19	Z19	X20	Y20	Z20	X21	Y21	Z21	X22	Y22	Z22	X23	Y23	Z23	X24	Y24	Z24	X25	Y25	Z25	X26	Y26	Z26	X27	Y27	Z27	X28	Y28	Z28	X29	Y29	Z29	X30	Y30	Z30	X31	Y31	Z31	X32	Y32	Z32	X33	Y33	Z33	X34	Y34	Z34	X35	Y35	Z35	X36	Y36	Z36	X37	Y37	Z37	X38	Y38	Z38	X39	Y39	Z39	X40	Y40	Z40	X41	Y41	Z41	X42	Y42	Z42	X43	Y43	Z43	X44	Y44	Z44	X45	Y45	Z45	X46	Y46	Z46	

156	1.550	1363.94397	-69.27964	1633.26172	1497.35303	-77.19392	1636.76086	1362.37927	-190.79909	1573.18066	1493.63745	-194.00937	1577.45789	1416.65454	-211.45755	1423.00659	1414.83496	-247.41508	1111.83667	1424.37549	-90.15213	1345.96643	1419.69629	-47.39035	1180.63159	1509.08813	-269.45581	1248.91907	1267.00378	-122.92989	1383.27051	1193.37561	-112.69418	1188.00916	1181.89746	-94.03050	1066.26477	1185.97888	-56.62254	941.61926	1217.87195	-33.57563	825.26563	1163.30542	-45.20825	830.22632	1174.01758	-20.17426	750.60315	1581.35706	-143.94066	1369.46021	1655.53369	-141.78749	1148.29822	1670.21802	-120.57084	1037.75879	1672.68774	-91.81243	903.60065	1637.96021	-51.39457	812.34558	1680.69897	-83.90791	803.73596	1671.77234	-52.68421	735.97284	1300.97522	-79.84062	947.23505	1539.44238	-89.74030	944.53790	1347.39172	-243.93307	973.44818	1496.15393	-248.28877	975.26123	1266.23047	-140.85370	645.76233	1308.86719	-139.66792	468.46796	1306.41565	-194.11478	279.98322	1349.74353	-218.18935	71.55981	1385.36047	-259.50186	37.42323	1368.40515	-66.10075	34.47634	1587.76770	-94.34764	650.02234	1568.18506	-36.01811	479.40262	1564.59106	-157.80106	332.83209	1516.58325	-293.03513	167.19673	1460.30444	-344.63370	161.94673	1509.29065	-201.24942	60.11486	1411.07349	-161.08261	1684.52197																		 
157	1.560	1364.29419	-58.99854	1632.71216	1497.58228	-67.18048	1636.16394	1362.45776	-180.87730	1573.19006	1493.67615	-184.24405	1577.42456	1416.60095	-202.50325	1422.73132	1414.28027	-238.36313	1111.44543	1424.51147	-81.21156	1345.62378	1419.58850	-38.51693	1180.32202	1508.67896	-260.84393	1248.61475	1267.27222	-113.74139	1383.38269	1192.93726	-101.00985	1188.88635	1181.36877	-80.76825	1067.39038	1185.86658	-40.72916	943.58234	1217.72583	-15.46989	827.75024	1163.07874	-26.82453	832.47516	1173.71643	0.21398	753.74261	1581.38403	-135.68474	1369.11365	1655.26306	-135.53242	1147.77722	1670.10986	-115.25840	1037.11877	1672.77979	-87.70781	902.69550	1638.58044	-47.62105	811.08081	1680.82166	-80.79066	802.78265	1672.43164	-50.03923	734.81726	1300.42224	-70.73427	946.70349	1538.95471	-80.43867	944.40479	1347.26038	-234.90654	972.89282	1495.94629	-239.11931	974.93835	1266.16394	-133.83606	645.37744	1308.73767	-134.76851	467.97113	1306.34009	-191.48013	280.08862	1349.75830	-217.95065	71.84232	1384.89844	-259.42630	37.89614	1368.12964	-66.05109	34.57861	1587.64685	-81.63445	650.91547	1567.39441	-20.24151	481.29327	1563.68103	-136.72243	329.95837	1515.42590	-265.67212	159.19330	1459.51343	-317.14694	151.52080	1507.67041	-168.26488	57.46817	1410.72620	-150.46225	1683.89270																		 
158	1.570	1364.48242	-48.81054	1631.89294	1497.87952	-57.05254	1635.41760	1362.53638	-170.93034	1573.17896	1493.63940	-174.59276	1577.40613	1416.52551	-193.53326	1422.29663	1413.82153	-229.31194	1111.11365	1424.69104	-72.24140	1345.20056	1419.56360	-29.59700	1179.90320	1508.20825	-252.13843	1248.14722	1267.55823	-104.50923	1383.38245	1192.53650	-89.85782	1189.48999	1180.90442	-67.44106	1068.59705	1185.32166	-24.90712	945.59204	1217.59656	2.57692	830.30951	1162.96033	-8.46140	834.85938	1173.55457	20.44213	756.89728	1581.46533	-127.31508	1368.60059	1655.12378	-129.14444	1147.14380	1669.91357	-110.15474	1036.28503	1672.89258	-83.48235	901.68774	1639.18225	-43.78848	809.72266	1680.93237	-77.56391	801.72479	1673.07727	-47.29738	733.50427	1300.13123	-62.14949	946.00330	1538.68127	-71.16363	944.16071	1347.14404	-225.78442	972.56268	1495.76807	-229.89160	974.44586	1266.34265	-126.44678	644.66205	1308.43982	-130.06654	467.54050	1306.29041	-188.92413	280.20364	1349.94641	-217.54976	72.07130	1385.16711	-259.39340	38.33480	1368.15491	-66.02864	34.51084	1587.59473	-69.12550	651.60492	1566.72534	-5.02156	483.02835	1563.00818	-115.77725	326.96616	1514.45337	-237.47327	150.89482	1458.44226	-289.01755	140.73701	1506.23572	-134.79099	54.96489	1411.38013	-140.07265	1684.12878																		 
159	1.580	1364.88184	-38.42873	1631.21094	1498.27356	-46.90301	1634.56042	1362.68188	-160.98682	1573.18604	1493.76514	-164.84195	1577.26758	1416.64905	-184.25522	1422.04590	1413.36633	-220.13933	1110.58997	1424.80005	-63.16360	1344.61487	1419.53577	-20.61438	1179.38525	1507.81396	-243.83754	1247.58801	1267.81409	-95.36240	1383.27124	1192.19568	-78.88818	1190.08032	1180.14978	-54.36769	1069.55713	1184.86975	-9.20542	947.54602	1217.48657	20.75201	832.95502	1162.93677	9.73906	837.25507	1173.50098	40.42505	759.99341	1581.54517	-118.86487	1367.98279	1654.98560	-122.53638	1146.38293	1669.99951	-104.46882	1035.39185	1673.02551	-79.20083	900.56726	1639.66418	-39.90213	808.25165	1681.02087	-74.31420	800.53900	1673.61865	-44.51608	732.06995	1299.76477	-52.95549	945.50507	1538.38745	-61.90739	943.82611	1347.05371	-216.64140	971.84570	1495.59705	-220.68509	973.84772	1265.98303	-120.06594	644.19342	1308.20947	-125.63507	467.15701	1306.19226	-186.43802	280.31247	1349.75830	-217.46402	72.57526	1385.22339	-259.38733	38.77694	1368.07861	-65.91816	34.46965	1587.68445	-56.56957	651.83783	1565.99683	9.62737	484.52289	1562.35352	-94.79500	323.83554	1513.60840	-208.64856	142.41679	1457.72021	-259.61130	129.53957	1505.10266	-100.96607	52.45213	1411.89709	-129.59499	1684.07202																		 
